<mxfile host="app.diagrams.net" modified="2024-05-12T14:12:31.235Z" agent="Mozilla/5.0 (Windows NT 10.0; Win64; x64) AppleWebKit/537.36 (KHTML, like Gecko) Chrome/121.0.0.0 Safari/537.36" etag="I7TBOBtP5BWnHlbJLeZN" version="24.4.0" type="github">
  <diagram name="第 1 页" id="e5x21kg7gF92nxbEfZdq">
    <mxGraphModel dx="1290" dy="565" grid="0" gridSize="10" guides="1" tooltips="1" connect="1" arrows="1" fold="1" page="0" pageScale="1" pageWidth="827" pageHeight="1169" math="0" shadow="0">
      <root>
        <mxCell id="0" />
        <mxCell id="1" parent="0" />
        <mxCell id="JlvelSGT45dtCNbBCXED-2" value="RFC" style="shape=dataStorage;whiteSpace=wrap;html=1;fixedSize=1;" vertex="1" parent="1">
          <mxGeometry x="2" y="181" width="76" height="80" as="geometry" />
        </mxCell>
        <mxCell id="JlvelSGT45dtCNbBCXED-5" value="RFC V2" style="shape=dataStorage;whiteSpace=wrap;html=1;fixedSize=1;" vertex="1" parent="1">
          <mxGeometry x="89" y="182" width="86" height="80" as="geometry" />
        </mxCell>
        <mxCell id="JlvelSGT45dtCNbBCXED-6" value="RFC V3" style="shape=dataStorage;whiteSpace=wrap;html=1;fixedSize=1;" vertex="1" parent="1">
          <mxGeometry x="275" y="180" width="87" height="80" as="geometry" />
        </mxCell>
        <mxCell id="JlvelSGT45dtCNbBCXED-7" value="RFC V4" style="shape=dataStorage;whiteSpace=wrap;html=1;fixedSize=1;" vertex="1" parent="1">
          <mxGeometry x="372" y="181" width="87" height="80" as="geometry" />
        </mxCell>
        <mxCell id="JlvelSGT45dtCNbBCXED-8" value="&lt;span style=&quot;color: rgb(0, 0, 0); font-family: courier, monospace; font-size: medium; font-style: normal; font-variant-ligatures: normal; font-variant-caps: normal; font-weight: 400; letter-spacing: normal; orphans: 2; text-align: start; text-indent: 0px; text-transform: none; widows: 2; word-spacing: 0px; -webkit-text-stroke-width: 0px; white-space: normal; text-decoration-thickness: initial; text-decoration-style: initial; text-decoration-color: initial; display: inline !important; float: none;&quot;&gt;2015.8&lt;/span&gt;" style="text;whiteSpace=wrap;html=1;" vertex="1" parent="1">
          <mxGeometry x="15" y="267" width="42" height="31" as="geometry" />
        </mxCell>
        <mxCell id="JlvelSGT45dtCNbBCXED-9" value="&lt;font size=&quot;3&quot; face=&quot;courier, monospace&quot;&gt;2017.2&lt;/font&gt;" style="text;whiteSpace=wrap;html=1;" vertex="1" parent="1">
          <mxGeometry x="292" y="266" width="45" height="31" as="geometry" />
        </mxCell>
        <mxCell id="JlvelSGT45dtCNbBCXED-10" value="&lt;span style=&quot;color: rgb(0, 0, 0); font-family: courier, monospace; font-size: medium; font-style: normal; font-variant-ligatures: normal; font-variant-caps: normal; font-weight: 400; letter-spacing: normal; orphans: 2; text-align: start; text-indent: 0px; text-transform: none; widows: 2; word-spacing: 0px; -webkit-text-stroke-width: 0px; white-space: normal; text-decoration-thickness: initial; text-decoration-style: initial; text-decoration-color: initial; display: inline !important; float: none;&quot;&gt;2016.10&lt;/span&gt;" style="text;whiteSpace=wrap;html=1;" vertex="1" parent="1">
          <mxGeometry x="111" y="267" width="42" height="31" as="geometry" />
        </mxCell>
        <mxCell id="JlvelSGT45dtCNbBCXED-12" value="&lt;font size=&quot;3&quot; face=&quot;courier, monospace&quot;&gt;2017.8&lt;/font&gt;" style="text;whiteSpace=wrap;html=1;" vertex="1" parent="1">
          <mxGeometry x="393" y="267" width="45" height="31" as="geometry" />
        </mxCell>
        <mxCell id="JlvelSGT45dtCNbBCXED-13" value="LPC" style="shape=dataStorage;whiteSpace=wrap;html=1;fixedSize=1;" vertex="1" parent="1">
          <mxGeometry x="182" y="181" width="87" height="80" as="geometry" />
        </mxCell>
        <mxCell id="JlvelSGT45dtCNbBCXED-14" value="&lt;span style=&quot;color: rgb(0, 0, 0); font-family: courier, monospace; font-size: medium; font-style: normal; font-variant-ligatures: normal; font-variant-caps: normal; font-weight: 400; letter-spacing: normal; orphans: 2; text-align: start; text-indent: 0px; text-transform: none; widows: 2; word-spacing: 0px; -webkit-text-stroke-width: 0px; white-space: normal; text-decoration-thickness: initial; text-decoration-style: initial; text-decoration-color: initial; display: inline !important; float: none;&quot;&gt;2016.11&lt;/span&gt;" style="text;whiteSpace=wrap;html=1;" vertex="1" parent="1">
          <mxGeometry x="202" y="267" width="42" height="31" as="geometry" />
        </mxCell>
      </root>
    </mxGraphModel>
  </diagram>
</mxfile>
